<svg width="64" height="42" viewBox="0 0 64 42" fill="none" xmlns="http://www.w3.org/2000/svg">
<path fill-rule="evenodd" clip-rule="evenodd" d="M0 33.7554V10.6978C0.200161 10.8335 0.406421 10.9622 0.618524 11.0833L17.3913 20.6602L0 33.7554ZM0.665784 3.79772C0.932657 5.12312 1.75877 6.28871 2.95723 6.97296L29.6613 22.2198C31.1106 23.0473 32.8894 23.0473 34.3387 22.2198L61.0428 6.97296C62.2412 6.28871 63.0673 5.12311 63.3342 3.79771C62.2491 1.55018 59.9511 0 57.2918 0H6.70822C4.04887 0 1.75094 1.55019 0.665784 3.79772ZM4.83339 42C3.19657 42 1.74978 41.1849 0.875401 39.9379C1.18759 39.1074 1.73093 38.3703 2.45717 37.8233L21.8612 23.2108L27.3226 26.3302C30.2213 27.9852 33.7787 27.9852 36.6774 26.3302L42.1366 23.2108L61.5428 37.8233C62.2691 38.3703 62.8124 39.1074 63.1246 39.9379C62.2502 41.1849 60.8034 42 59.1666 42H4.83339ZM64 33.7554V10.6978C63.7998 10.8335 63.5936 10.9622 63.3815 11.0833L46.6065 20.6602L64 33.7554Z" fill="white"/>
</svg>
