<svg width="128" height="128" viewBox="0 0 128 128" fill="none" xmlns="http://www.w3.org/2000/svg">
<path fill-rule="evenodd" clip-rule="evenodd" d="M9.61323 30.6305C10.6594 30.9861 11.7064 31.339 12.7543 31.6891C20.9857 34.094 29.2821 36.2841 37.6433 38.2597C38.6132 38.4888 39.5839 38.7151 40.5554 38.9384C41.5828 39.1743 42.4306 39.855 42.9268 40.7833C43.4228 41.7121 43.5239 42.8209 43.2105 43.8573C42.8971 44.8936 42.1979 45.7625 41.2692 46.2645C40.9972 46.4114 40.7118 46.524 40.4194 46.6006C40.1729 46.6651 39.9217 46.7149 39.6705 46.7647C39.2377 46.8504 38.805 46.9361 38.3967 47.0973C37.8397 47.3173 37.3026 47.5388 36.7825 47.7653C28.5345 43.0103 17.2518 37.9595 7.53521 37.4527C7.13343 36.7424 6.72457 36.0572 6.30984 35.4019L0 27.6621L9.61323 30.6305Z" fill="#DFA8FF"/>
<path fill-rule="evenodd" clip-rule="evenodd" d="M9.61323 30.6305C10.6594 30.9861 11.7064 31.339 12.7543 31.6891C20.9857 34.094 29.2821 36.2841 37.6433 38.2597C38.6132 38.4888 39.5839 38.7151 40.5554 38.9384C41.5828 39.1743 42.4306 39.855 42.9268 40.7833C43.4228 41.7121 43.5239 42.8209 43.2105 43.8573C42.8971 44.8936 42.1979 45.7625 41.2692 46.2645C40.9972 46.4114 40.7118 46.524 40.4194 46.6006C40.1729 46.6651 39.9217 46.7149 39.6705 46.7647C39.2377 46.8504 38.805 46.9361 38.3967 47.0973C37.8397 47.3173 37.3026 47.5388 36.7825 47.7653C28.5345 43.0103 17.2518 37.9595 7.53521 37.4527C7.13343 36.7424 6.72457 36.0572 6.30984 35.4019L0 27.6621L9.61323 30.6305Z" fill="#DFA8FF"/>
<path fill-rule="evenodd" clip-rule="evenodd" d="M9.61323 30.6305C10.6594 30.9861 11.7064 31.339 12.7543 31.6891C20.9857 34.094 29.2821 36.2841 37.6433 38.2597C38.6132 38.4888 39.5839 38.7151 40.5554 38.9384C41.5828 39.1743 42.4306 39.855 42.9268 40.7833C43.4228 41.7121 43.5239 42.8209 43.2105 43.8573C42.8971 44.8936 42.1979 45.7625 41.2692 46.2645C40.9972 46.4114 40.7118 46.524 40.4194 46.6006C40.1729 46.6651 39.9217 46.7149 39.6705 46.7647C39.2377 46.8504 38.805 46.9361 38.3967 47.0973C37.8397 47.3173 37.3026 47.5388 36.7825 47.7653C28.5345 43.0103 17.2518 37.9595 7.53521 37.4527C7.13343 36.7424 6.72457 36.0572 6.30984 35.4019L0 27.6621L9.61323 30.6305Z" fill="#DFA8FF"/>
<path d="M15.0363 56.2215C13.3398 49.9739 10.6503 42.9602 7.53516 37.4531C17.2517 37.9599 28.5344 43.0108 36.7824 47.7657C32.1636 49.7769 28.8878 52.1781 24.941 57.3725C24.6792 57.8362 24.433 58.3133 24.2151 58.7842C24.0976 59.0383 24.0157 59.3061 23.9337 59.574C23.8875 59.7251 23.8412 59.8762 23.7886 60.0249C23.6042 60.5461 23.3004 61.0278 22.8995 61.4385C22.1107 62.2458 20.9977 62.7129 19.8189 62.7368C18.6402 62.7608 17.5089 62.3393 16.6877 61.5648C15.8673 60.7903 15.4105 59.7265 15.4956 58.6058C15.4979 58.603 15.5 58.5998 15.5021 58.5962C15.5042 58.5926 15.5062 58.5886 15.5081 58.5842C15.4228 57.9199 15.2353 56.9964 15.0363 56.2215Z" fill="#AF26FF"/>
<path fill-rule="evenodd" clip-rule="evenodd" d="M106.096 6.61093C105.286 7.36008 104.475 8.10709 103.661 8.85196C97.1295 14.3876 90.4506 19.7536 83.6245 24.9499C82.8327 25.5526 82.039 26.1531 81.2433 26.7512C80.4017 27.3834 79.9063 28.349 79.8334 29.398C79.7608 30.4474 80.1225 31.5009 80.8331 32.3201C81.5437 33.1393 82.538 33.6491 83.5916 33.7307C83.9002 33.7545 84.2069 33.7415 84.5052 33.6928C84.7568 33.6517 85.0066 33.5952 85.2563 33.5387C85.6866 33.4414 86.1168 33.3441 86.5557 33.3257C86.7261 33.3186 86.8952 33.3122 87.0628 33.3066C92.2737 25.6748 101.403 14.7541 111.148 9.3241L113.659 0L106.096 6.61093Z" fill="#DFA8FF"/>
<path fill-rule="evenodd" clip-rule="evenodd" d="M106.096 6.61093C105.286 7.36008 104.475 8.10709 103.661 8.85196C97.1295 14.3876 90.4506 19.7536 83.6245 24.9499C82.8327 25.5526 82.039 26.1531 81.2433 26.7512C80.4017 27.3834 79.9063 28.349 79.8334 29.398C79.7608 30.4474 80.1225 31.5009 80.8331 32.3201C81.5437 33.1393 82.538 33.6491 83.5916 33.7307C83.9002 33.7545 84.2069 33.7415 84.5052 33.6928C84.7568 33.6517 85.0066 33.5952 85.2563 33.5387C85.6866 33.4414 86.1168 33.3441 86.5557 33.3257C86.7261 33.3186 86.8952 33.3122 87.0628 33.3066C92.2737 25.6748 101.403 14.7541 111.148 9.3241L113.659 0L106.096 6.61093Z" fill="#DFA8FF"/>
<path fill-rule="evenodd" clip-rule="evenodd" d="M106.096 6.61093C105.286 7.36008 104.475 8.10709 103.661 8.85196C97.1295 14.3876 90.4506 19.7536 83.6245 24.9499C82.8327 25.5526 82.039 26.1531 81.2433 26.7512C80.4017 27.3834 79.9063 28.349 79.8334 29.398C79.7608 30.4474 80.1225 31.5009 80.8331 32.3201C81.5437 33.1393 82.538 33.6491 83.5916 33.7307C83.9002 33.7545 84.2069 33.7415 84.5052 33.6928C84.7568 33.6517 85.0066 33.5952 85.2563 33.5387C85.6866 33.4414 86.1168 33.3441 86.5557 33.3257C86.7261 33.3186 86.8952 33.3122 87.0628 33.3066C92.2737 25.6748 101.403 14.7541 111.148 9.3241L113.659 0L106.096 6.61093Z" fill="#DFA8FF"/>
<path d="M111.148 9.32422L111.066 9.62782C110.1 16.3384 110.484 24.9615 111.624 32.1794C111.759 32.9678 111.966 33.8872 112.16 34.5284C112.167 34.5347 112.174 34.5396 112.181 34.5431C112.717 35.5318 112.736 36.6886 112.304 37.7287C111.871 38.7691 111.011 39.613 109.924 40.0693C108.838 40.5257 107.631 40.5508 106.58 40.1336C106.045 39.9213 105.571 39.6046 105.189 39.2035C105.08 39.0891 104.976 38.9699 104.872 38.8507C104.687 38.6392 104.503 38.4279 104.291 38.2436C103.9 37.902 103.479 37.5662 103.05 37.249C96.8575 33.8539 92.7156 33.1191 87.0627 33.3068C92.2736 25.6749 101.403 14.7542 111.148 9.32422Z" fill="#AF26FF"/>
<path fill-rule="evenodd" clip-rule="evenodd" d="M62.8107 35.2896C62.8359 35.2131 62.8475 35.1738 62.8475 35.1738C62.8475 35.1738 77.6849 48.8207 110.163 50.0822C128.316 50.7873 133.772 80.8645 121.118 101.187C117.387 99.4995 108.798 93.7693 104.292 84.3454C99.7851 74.9216 93.3172 68.8858 90.6465 67.0458C89.8811 62.2347 87.8091 58.7862 85.373 58.7862C83.7372 58.7862 82.2655 60.3411 81.2434 62.8195C62.2155 54.4219 61.013 41.0475 62.8107 35.2896Z" fill="#CB3653"/>
<path fill-rule="evenodd" clip-rule="evenodd" d="M62.7137 35.57C62.7569 35.4493 62.7888 35.3552 62.8106 35.2891C61.013 41.047 62.2154 54.4214 81.2433 62.819C80.3367 65.0174 79.7837 67.9425 79.7837 71.1533C79.7837 77.9837 82.2861 83.5209 85.373 83.5209C88.4598 83.5209 90.9622 77.9837 90.9622 71.1533C90.9622 69.7132 90.851 68.3306 90.6465 67.0453C93.3171 68.8852 99.785 74.9211 104.291 84.3449C108.798 93.7687 117.387 99.4989 121.118 101.186C117.622 106.801 112.743 111.671 106.368 114.971C91.812 122.506 79.3992 126.383 68.9305 127.585C66.9855 121.39 64.008 106.124 67.659 94.618C71.31 83.1121 66.1378 74.1807 63.0953 71.1533C57.555 58.442 60.4569 42.4042 62.7137 35.57ZM84.5093 112.414L82.3015 98.6737L87.8572 91.6291L67.659 98.6737L77.0822 100.321L84.5093 112.414Z" fill="#F5A9B8"/>
<path fill-rule="evenodd" clip-rule="evenodd" d="M29.7982 69.3581C55.1827 54.1423 61.7513 38.2574 62.7136 35.5703C60.4568 42.4045 57.5549 58.4423 63.0952 71.1535C62.1193 69.3121 60.8535 68.2006 59.4705 68.2006C56.3836 68.2006 53.8813 73.7378 53.8813 80.5682C53.8813 87.3987 56.3836 92.9358 59.4705 92.9358C62.5574 92.9358 65.0598 87.3987 65.0598 80.5682C65.0598 76.7981 64.2974 73.422 63.0952 71.1535C66.1377 74.181 71.3099 83.1124 67.6589 94.6183C64.0079 106.124 66.9853 121.39 68.9304 127.585C19.4438 133.266 13.4039 79.1851 29.7982 69.3581Z" fill="#00F2FA"/>
</svg>
