<svg width="512" height="512" viewBox="0 0 512 512" fill="none" xmlns="http://www.w3.org/2000/svg">
<path fill-rule="evenodd" clip-rule="evenodd" d="M450.125 146.86C450.152 146.885 450.179 146.904 450.204 146.918C450.199 146.915 450.193 146.91 450.188 146.907C450.183 146.904 450.178 146.901 450.173 146.897C450.157 146.887 450.141 146.875 450.125 146.86Z" fill="black" fill-opacity="0.25"/>
<path fill-rule="evenodd" clip-rule="evenodd" d="M257.449 149.521C257.425 149.596 257.392 149.7 257.348 149.833C257.263 150.092 257.138 150.459 256.969 150.931C253.211 161.427 227.551 223.479 128.391 282.917C64.3493 321.305 87.9435 532.564 281.255 510.371C322.149 505.676 370.637 490.533 427.498 461.097C452.401 448.205 471.458 429.181 485.115 407.249C534.546 327.864 513.233 210.373 442.321 207.618C315.452 202.69 257.492 149.381 257.492 149.381C257.492 149.381 257.478 149.428 257.449 149.521ZM323.651 289.931C323.651 277.388 325.811 265.962 329.353 257.374C333.345 247.693 339.094 241.619 345.484 241.619C355 241.619 363.094 255.09 366.084 273.884C366.883 278.905 367.318 284.306 367.318 289.931C367.318 316.613 357.543 338.243 345.484 338.243C333.426 338.243 323.651 316.613 323.651 289.931ZM342.11 451.11L333.486 397.435L355.189 369.916L276.288 397.435L313.098 403.87L342.11 451.11ZM266.134 326.708C266.134 311.98 263.156 298.792 258.46 289.931C254.648 282.738 249.704 278.396 244.301 278.396C232.243 278.396 222.468 300.026 222.468 326.708C222.468 353.39 232.243 375.02 244.301 375.02C256.359 375.02 266.134 353.39 266.134 326.708Z" fill="black" fill-opacity="0.25"/>
<path fill-rule="evenodd" clip-rule="evenodd" d="M426.436 37.806C423.273 40.7324 420.103 43.6505 416.925 46.5602C391.41 68.1844 365.319 89.1457 338.654 109.444C335.561 111.799 332.461 114.144 329.353 116.481C326.065 118.95 324.13 122.722 323.845 126.82C323.562 130.919 324.974 135.034 327.75 138.235C330.526 141.435 334.41 143.426 338.526 143.745C339.731 143.838 340.929 143.787 342.095 143.597C343.078 143.436 344.053 143.216 345.029 142.995C346.71 142.615 348.39 142.235 350.105 142.163C350.77 142.135 351.431 142.11 352.086 142.088C374.168 141.355 390.347 144.226 414.539 157.488C416.214 158.727 417.856 160.039 419.386 161.373C420.212 162.093 420.933 162.919 421.654 163.745C422.06 164.21 422.467 164.676 422.893 165.123C424.384 166.69 426.238 167.927 428.326 168.756C432.43 170.386 437.148 170.288 441.391 168.505C445.634 166.722 448.995 163.426 450.685 159.362C452.373 155.299 452.3 150.78 450.204 146.918C450.179 146.904 450.152 146.885 450.125 146.86C449.367 144.356 448.558 140.764 448.028 137.685C443.577 109.489 442.078 75.8044 445.852 49.5905L446.171 48.4045L455.978 11.9814L426.436 37.806Z" fill="black" fill-opacity="0.25"/>
<path fill-rule="evenodd" clip-rule="evenodd" d="M61.8118 135.772C57.7183 134.405 53.6283 133.026 49.5417 131.637L11.9893 120.041L36.6376 150.276C38.2577 152.836 39.8548 155.512 41.4243 158.287C53.5933 179.799 64.099 207.197 70.7262 231.602C71.5035 234.629 72.2362 238.237 72.5695 240.832C72.5619 240.849 72.5541 240.864 72.5458 240.879C72.5415 240.886 72.537 240.893 72.5324 240.9C72.5285 240.906 72.5246 240.911 72.5207 240.916C72.1881 245.294 73.9724 249.45 77.1772 252.475C80.385 255.501 84.8042 257.147 89.4087 257.053C94.0133 256.96 98.3614 255.135 101.442 251.982C103.009 250.377 104.195 248.496 104.916 246.46C105.121 245.879 105.302 245.288 105.483 244.698C105.803 243.651 106.123 242.605 106.582 241.613C107.433 239.774 108.395 237.91 109.417 236.099C124.835 215.807 137.631 206.428 155.674 198.571C157.706 197.687 159.804 196.821 161.98 195.962C163.575 195.332 165.265 194.997 166.955 194.662C167.936 194.468 168.918 194.274 169.881 194.022C171.023 193.722 172.138 193.283 173.201 192.709C176.828 190.748 179.56 187.353 180.784 183.305C182.008 179.257 181.613 174.926 179.676 171.297C177.737 167.671 174.425 165.012 170.412 164.091C166.617 163.218 162.825 162.334 159.037 161.439C126.375 153.722 93.9665 145.166 61.8118 135.772Z" fill="black" fill-opacity="0.25"/>
<path fill-rule="evenodd" clip-rule="evenodd" d="M37.5525 119.656C41.6391 121.045 45.7291 122.424 49.8226 123.791C81.9772 133.186 114.386 141.741 147.047 149.458C150.836 150.353 154.628 151.237 158.423 152.11C162.436 153.031 165.748 155.69 167.686 159.316C169.624 162.945 170.019 167.276 168.795 171.324C167.57 175.373 164.839 178.767 161.211 180.728C160.149 181.302 159.034 181.742 157.892 182.041C156.929 182.293 155.947 182.487 154.966 182.681C153.275 183.016 151.585 183.351 149.991 183.981C147.815 184.84 145.716 185.706 143.685 186.59C111.465 168.016 67.3912 148.286 29.4351 146.306C27.8656 143.531 26.2684 140.855 24.6483 138.295L0 108.061L37.5525 119.656Z" fill="#DFA8FF"/>
<path fill-rule="evenodd" clip-rule="evenodd" d="M37.5525 119.656C41.6391 121.045 45.7291 122.424 49.8226 123.791C81.9772 133.186 114.386 141.741 147.047 149.458C150.836 150.353 154.628 151.237 158.423 152.11C162.436 153.031 165.748 155.69 167.686 159.316C169.624 162.945 170.019 167.276 168.795 171.324C167.57 175.373 164.839 178.767 161.211 180.728C160.149 181.302 159.034 181.742 157.892 182.041C156.929 182.293 155.947 182.487 154.966 182.681C153.275 183.016 151.585 183.351 149.991 183.981C147.815 184.84 145.716 185.706 143.685 186.59C111.465 168.016 67.3912 148.286 29.4351 146.306C27.8656 143.531 26.2684 140.855 24.6483 138.295L0 108.061L37.5525 119.656Z" fill="#DFA8FF"/>
<path fill-rule="evenodd" clip-rule="evenodd" d="M37.5525 119.656C41.6391 121.045 45.7291 122.424 49.8226 123.791C81.9772 133.186 114.386 141.741 147.047 149.458C150.836 150.353 154.628 151.237 158.423 152.11C162.436 153.031 165.748 155.69 167.686 159.316C169.624 162.945 170.019 167.276 168.795 171.324C167.57 175.373 164.839 178.767 161.211 180.728C160.149 181.302 159.034 181.742 157.892 182.041C156.929 182.293 155.947 182.487 154.966 182.681C153.275 183.016 151.585 183.351 149.991 183.981C147.815 184.84 145.716 185.706 143.685 186.59C111.465 168.016 67.3912 148.286 29.4351 146.306C27.8656 143.531 26.2684 140.855 24.6483 138.295L0 108.061L37.5525 119.656Z" fill="#DFA8FF"/>
<path d="M58.737 219.621C52.1098 195.216 41.604 167.818 29.4351 146.306C67.3912 148.285 111.465 168.016 143.685 186.59C125.642 194.446 112.846 203.826 97.4281 224.117C96.4054 225.929 95.4437 227.793 94.5926 229.632C94.1335 230.624 93.8135 231.671 93.4932 232.717C93.3127 233.307 93.1321 233.898 92.9265 234.479C92.2059 236.515 91.0193 238.396 89.4532 240.001C86.3721 243.154 82.0241 244.979 77.4195 245.072C72.8149 245.166 68.3957 243.519 65.1879 240.494C61.9832 237.469 60.1988 233.313 60.5314 228.935C60.5401 228.924 60.5485 228.912 60.5566 228.898C60.5648 228.883 60.5727 228.868 60.5802 228.851C60.2469 226.256 59.5143 222.648 58.737 219.621Z" fill="#AF26FF"/>
<path fill-rule="evenodd" clip-rule="evenodd" d="M414.446 25.8245C411.284 28.751 408.113 31.669 404.935 34.5787C379.42 56.2029 353.33 77.1642 326.665 97.4627C323.572 99.8171 320.471 102.163 317.363 104.499C314.076 106.969 312.14 110.741 311.856 114.838C311.572 118.938 312.985 123.053 315.761 126.253C318.537 129.453 322.421 131.445 326.537 131.763C327.742 131.856 328.94 131.806 330.105 131.615C331.088 131.455 332.064 131.234 333.039 131.013C334.72 130.633 336.401 130.253 338.115 130.181C338.781 130.154 339.441 130.129 340.096 130.107C360.452 100.294 396.112 57.6343 434.182 36.4231L443.989 0L414.446 25.8245Z" fill="#DFA8FF"/>
<path fill-rule="evenodd" clip-rule="evenodd" d="M414.446 25.8245C411.284 28.751 408.113 31.669 404.935 34.5787C379.42 56.2029 353.33 77.1642 326.665 97.4627C323.572 99.8171 320.471 102.163 317.363 104.499C314.076 106.969 312.14 110.741 311.856 114.838C311.572 118.938 312.985 123.053 315.761 126.253C318.537 129.453 322.421 131.445 326.537 131.763C327.742 131.856 328.94 131.806 330.105 131.615C331.088 131.455 332.064 131.234 333.039 131.013C334.72 130.633 336.401 130.253 338.115 130.181C338.781 130.154 339.441 130.129 340.096 130.107C360.452 100.294 396.112 57.6343 434.182 36.4231L443.989 0L414.446 25.8245Z" fill="#DFA8FF"/>
<path fill-rule="evenodd" clip-rule="evenodd" d="M414.446 25.8245C411.284 28.751 408.113 31.669 404.935 34.5787C379.42 56.2029 353.33 77.1642 326.665 97.4627C323.572 99.8171 320.471 102.163 317.363 104.499C314.076 106.969 312.14 110.741 311.856 114.838C311.572 118.938 312.985 123.053 315.761 126.253C318.537 129.453 322.421 131.445 326.537 131.763C327.742 131.856 328.94 131.806 330.105 131.615C331.088 131.455 332.064 131.234 333.039 131.013C334.72 130.633 336.401 130.253 338.115 130.181C338.781 130.154 339.441 130.129 340.096 130.107C360.452 100.294 396.112 57.6343 434.182 36.4231L443.989 0L414.446 25.8245Z" fill="#DFA8FF"/>
<path d="M434.182 36.4238L433.863 37.6098C430.089 63.8237 431.588 97.5084 436.039 125.704C436.569 128.783 437.377 132.375 438.136 134.88C438.163 134.904 438.19 134.924 438.215 134.937C440.311 138.8 440.384 143.318 438.696 147.381C437.006 151.445 433.645 154.742 429.402 156.525C425.159 158.307 420.441 158.405 416.336 156.776C414.249 155.946 412.395 154.709 410.903 153.142C410.478 152.695 410.071 152.23 409.664 151.764C408.943 150.938 408.223 150.113 407.397 149.393C405.867 148.058 404.225 146.747 402.549 145.507C378.358 132.245 362.178 129.375 340.096 130.108C360.452 100.295 396.112 57.6351 434.182 36.4238Z" fill="#AF26FF"/>
<path fill-rule="evenodd" clip-rule="evenodd" d="M245.359 137.853C245.458 137.554 245.503 137.4 245.503 137.4C245.503 137.4 303.463 190.71 430.332 195.638C501.244 198.392 522.557 315.883 473.126 395.268C458.551 388.678 425.001 366.294 407.397 329.481C389.793 292.668 364.528 269.09 354.095 261.903C351.105 243.109 343.011 229.638 333.495 229.638C327.105 229.638 321.356 235.712 317.363 245.394C243.034 212.59 238.337 160.345 245.359 137.853Z" fill="#CB3653"/>
<path fill-rule="evenodd" clip-rule="evenodd" d="M244.98 138.949C245.149 138.478 245.274 138.11 245.359 137.852C238.337 160.344 243.034 212.589 317.363 245.393C313.821 253.98 311.661 265.407 311.661 277.949C311.661 304.631 321.437 326.261 333.495 326.261C345.553 326.261 355.328 304.631 355.328 277.949C355.328 272.324 354.894 266.923 354.095 261.902C364.527 269.089 389.793 292.667 407.397 329.48C425.001 366.293 458.551 388.677 473.126 395.267C459.469 417.2 440.412 436.223 415.509 449.115C358.648 478.552 310.159 493.694 269.265 498.389C261.667 474.19 250.036 414.556 264.298 369.61C278.56 324.664 258.356 289.775 246.471 277.949C224.829 228.295 236.165 165.646 244.98 138.949ZM330.121 439.128L321.497 385.453L343.199 357.935L264.298 385.453L301.108 391.888L330.121 439.128Z" fill="#F5A9B8"/>
<path fill-rule="evenodd" clip-rule="evenodd" d="M116.402 270.937C215.562 211.499 241.222 149.447 244.98 138.95C236.165 165.647 224.829 228.296 246.471 277.95C242.659 270.757 237.715 266.415 232.312 266.415C220.254 266.415 210.478 288.045 210.478 314.727C210.478 341.409 220.254 363.039 232.312 363.039C244.37 363.039 254.145 341.409 254.145 314.727C254.145 300 251.167 286.812 246.471 277.95C258.356 289.776 278.561 324.665 264.299 369.611C250.037 414.557 261.667 474.191 269.266 498.39C75.9544 520.584 52.3602 309.324 116.402 270.937Z" fill="#00F2FA"/>
</svg>
