<svg width="1382" height="518" viewBox="0 0 1382 518" fill="none" xmlns="http://www.w3.org/2000/svg">
<g filter="url(#filter0_ii_52_613)">
<path fill-rule="evenodd" clip-rule="evenodd" d="M1226 44.0413C1226 105.557 1275.87 155.425 1337.39 155.425V362.297C1275.87 362.297 1226 412.165 1226 473.681L155.425 473.681C155.425 412.165 105.557 362.297 44.0417 362.297L44.0415 155.425C105.557 155.425 155.425 105.557 155.425 44.0415L1226 44.0413Z" fill="#DAFFE0"/>
</g>
<path d="M1359.41 384.318H1337.39C1288.03 384.318 1248.02 424.327 1248.02 473.681V495.701H133.405V473.681C133.405 424.327 93.3951 384.318 44.0415 384.318H22.021V133.405H44.0415C93.3953 133.404 133.405 93.3948 133.405 44.0413V22.0208H1248.02V44.0413C1248.02 93.3948 1288.03 133.404 1337.39 133.405H1359.41V384.318Z" stroke="#885A3C" stroke-width="44.0414"/>
<path fill-rule="evenodd" clip-rule="evenodd" d="M857.594 44.0416H1226L1226.04 46.9171C1227.56 107.103 1276.83 155.426 1337.39 155.426V362.297C1275.87 362.297 1226 412.166 1226 473.681H462.34H733.187L692.671 517.723H1270.05V473.681C1270.05 436.49 1300.19 406.339 1337.39 406.338H1381.43V111.385H1337.39C1300.19 111.384 1270.05 81.2334 1270.05 44.0416V0.000244141H1038.97L998.452 44.0416H857.594Z" fill="#57321B"/>
<g filter="url(#filter1_d_52_613)">
<path fill-rule="evenodd" clip-rule="evenodd" d="M1236.92 227.242C1236.73 227.236 1236.54 227.233 1236.34 227.233L1237.46 227.267C1237.28 227.256 1237.1 227.247 1236.92 227.242Z" fill="#135617"/>
<path fill-rule="evenodd" clip-rule="evenodd" d="M1137.98 265.524C1138 265.376 1138.02 265.227 1138.04 265.079L1137.88 266.265C1137.92 266.018 1137.95 265.771 1137.98 265.524ZM1095.21 351.096L1096.92 351.129C1096.35 351.129 1095.78 351.117 1095.21 351.096ZM1047.99 292.286L1048.01 294.367C1048 294.113 1048 293.859 1048 293.603C1047.99 293.165 1047.99 292.723 1047.99 292.286Z" fill="#135617"/>
<path fill-rule="evenodd" clip-rule="evenodd" d="M911.819 339.745L909.371 340.217C909.738 340.145 910.13 340.069 910.547 339.988C910.948 339.911 911.372 339.829 911.819 339.745Z" fill="#135617"/>
<path fill-rule="evenodd" clip-rule="evenodd" d="M884.278 265.524C884.298 265.376 884.318 265.227 884.336 265.079L884.172 266.265C884.21 266.018 884.245 265.771 884.278 265.524ZM841.507 351.096L843.218 351.129C842.645 351.129 842.075 351.117 841.507 351.096ZM794.28 292.286L794.303 294.371L794.298 294.126C794.286 293.519 794.28 292.899 794.28 292.286Z" fill="#135617"/>
<path fill-rule="evenodd" clip-rule="evenodd" d="M794.133 210.083C794.133 210.412 794.125 210.735 794.109 211.052L794.133 210.083ZM787.48 197.812C787.48 198.129 787.428 198.435 787.323 198.732C787.399 198.516 787.447 198.295 787.467 198.069C787.471 198.029 787.474 197.988 787.476 197.947C787.478 197.902 787.48 197.857 787.48 197.812Z" fill="#135617"/>
<path fill-rule="evenodd" clip-rule="evenodd" d="M498.291 266.265C498.352 265.864 498.407 265.463 498.456 265.061L498.291 266.265ZM431.672 250.431C433.505 247.345 436.048 244.294 439.3 241.279C438.961 241.593 438.631 241.908 438.307 242.223C435.527 244.931 433.315 247.667 431.672 250.431ZM463.264 233.789C462.308 233.657 461.318 233.591 460.294 233.591C460.639 233.591 460.98 233.599 461.318 233.614C461.982 233.643 462.63 233.701 463.264 233.789ZM427.732 305.108C426.277 299.538 425.55 293.194 425.55 286.076C425.55 286.726 425.557 287.369 425.569 288.006C425.69 294.345 426.41 300.046 427.732 305.108ZM496.197 334.47C495.494 335.174 494.783 335.854 494.064 336.513C494.799 335.839 495.527 335.141 496.246 334.42L496.197 334.47ZM497.256 333.388L496.246 334.42C496.584 334.081 496.921 333.737 497.256 333.388ZM455.627 351.096L457.337 351.129C456.764 351.129 456.195 351.117 455.627 351.096Z" fill="#135617"/>
<path fill-rule="evenodd" clip-rule="evenodd" d="M318.245 340.96C317.94 341.062 317.733 341.149 317.622 341.223C317.844 341.076 318.455 340.872 319.45 340.614L320.579 340.336C320.159 340.435 319.783 340.528 319.45 340.614C318.952 340.743 318.55 340.859 318.245 340.96ZM355.844 333.099C355.857 333.117 355.87 333.134 355.883 333.152C355.867 333.131 355.86 333.12 355.844 333.099ZM368.038 339.745C369.652 340.16 370.921 340.489 371.845 340.731L368.038 339.745ZM373.614 341.21C373.421 341.15 372.893 341.006 372.029 340.779L371.845 340.731C372.818 340.987 373.407 341.146 373.614 341.21ZM392.432 227.233C392.815 227.233 393.186 227.244 393.546 227.267L392.432 227.233ZM394.564 227.363C394.236 227.321 393.897 227.289 393.546 227.267L393.579 227.268C393.918 227.29 394.246 227.322 394.564 227.363ZM398.609 228.763C397.516 228.032 396.178 227.572 394.564 227.363C396.172 227.575 397.52 228.041 398.609 228.763Z" fill="#135617"/>
<path fill-rule="evenodd" clip-rule="evenodd" d="M161.791 172.973C161.255 173.124 160.727 173.281 160.207 173.444L161.791 172.973ZM135.474 208.457C135.474 208.666 135.475 208.875 135.477 209.084L135.474 208.457ZM135.486 209.661L135.477 209.084C135.479 209.277 135.482 209.469 135.486 209.661ZM194.522 252.859C194.651 252.796 194.78 252.73 194.909 252.663L194.522 252.859ZM194.477 252.88L194.148 253.035C194.258 252.985 194.368 252.933 194.477 252.88ZM226.528 325.905C226.473 328.739 226.293 330.966 225.989 332.584C226.361 330.606 226.548 327.72 226.548 323.925C226.548 324.615 226.541 325.275 226.528 325.905ZM302.098 182.14L303.786 182.008C303.233 182.058 302.671 182.103 302.098 182.14ZM320.993 175.928C321.256 175.692 321.518 175.44 321.761 175.191L320.993 175.928Z" fill="#135617"/>
<path fill-rule="evenodd" clip-rule="evenodd" d="M1236.34 227.233L1237.46 227.267C1237.1 227.244 1236.73 227.233 1236.34 227.233Z" fill="#135617"/>
<path fill-rule="evenodd" clip-rule="evenodd" d="M1091.77 350.829C1092.91 350.963 1094.05 351.052 1095.21 351.096L1096.92 351.129C1095.11 351.129 1093.33 351.021 1091.57 350.805C1091.61 350.811 1091.65 350.815 1091.69 350.82L1091.77 350.829Z" fill="#135617"/>
<path fill-rule="evenodd" clip-rule="evenodd" d="M909.371 340.217C907.209 340.642 905.906 340.928 905.461 341.075C906.053 340.878 908.172 340.435 911.819 339.745L909.371 340.217Z" fill="#135617"/>
<path fill-rule="evenodd" clip-rule="evenodd" d="M834.796 350.314C836.99 350.748 839.227 351.009 841.507 351.096L843.218 351.129C838.875 351.129 834.687 350.51 830.654 349.271C832.017 349.689 833.398 350.037 834.796 350.314Z" fill="#135617"/>
<path fill-rule="evenodd" clip-rule="evenodd" d="M769.041 276.736C768.736 275.24 768.436 273.894 768.14 272.698C768.441 273.915 768.746 275.287 769.056 276.814L769.041 276.736ZM794.109 211.052L794.133 210.083C794.133 210.412 794.125 210.735 794.109 211.052ZM725.345 329.362C725.277 329.04 725.218 328.709 725.168 328.37C725.069 327.707 725.003 327.004 724.968 326.289C725.002 327.013 725.069 327.707 725.168 328.37C725.184 328.479 725.201 328.587 725.219 328.694C725.237 328.8 725.255 328.905 725.275 329.009C725.288 329.082 725.302 329.154 725.317 329.226C725.326 329.272 725.335 329.317 725.345 329.362Z" fill="#135617"/>
<path fill-rule="evenodd" clip-rule="evenodd" d="M609.472 266.265C609.529 265.89 609.582 265.514 609.629 265.137L609.472 266.265ZM519.581 292.286L519.604 294.386C519.686 298.095 519.986 301.645 520.505 305.036C520.522 305.143 520.538 305.251 520.555 305.358C519.905 301.237 519.581 296.88 519.581 292.286ZM560.304 350.355C560.59 350.41 560.877 350.462 561.164 350.511C563.015 350.828 564.896 351.023 566.808 351.096L568.518 351.129C565.715 351.129 562.977 350.871 560.304 350.355ZM608.063 333.775C607.847 333.997 607.631 334.216 607.414 334.434L608.437 333.388C608.312 333.517 608.188 333.646 608.063 333.775Z" fill="#135617"/>
<path fill-rule="evenodd" clip-rule="evenodd" d="M498.291 266.265C498.604 264.229 498.758 262.177 498.753 260.111C498.754 260.788 498.738 261.463 498.706 262.137C498.659 263.115 498.575 264.09 498.456 265.061L498.291 266.265ZM450.986 350.671C452.513 350.894 454.06 351.036 455.627 351.096L457.337 351.129C454.718 351.129 452.155 350.904 449.648 350.453C450.092 350.533 450.538 350.605 450.986 350.671ZM496.246 334.42C496.584 334.081 496.921 333.737 497.256 333.388L496.246 334.42ZM416.23 325.654C415.873 325.024 415.528 324.385 415.196 323.737L415.18 323.705C415.483 324.297 415.797 324.882 416.121 325.46L416.23 325.654Z" fill="#135617"/>
<path fill-rule="evenodd" clip-rule="evenodd" d="M393.546 227.267L392.432 227.233C392.815 227.233 393.186 227.244 393.546 227.267ZM320.579 340.336C318.903 340.73 317.917 341.026 317.622 341.223C317.844 341.076 318.455 340.872 319.45 340.614L320.579 340.336ZM355.921 333.204C355.917 333.198 355.926 333.21 355.921 333.204L355.844 333.099C355.866 333.128 355.9 333.175 355.921 333.204ZM371.845 340.731L368.038 339.745C369.652 340.16 370.921 340.489 371.845 340.731Z" fill="#135617"/>
<path fill-rule="evenodd" clip-rule="evenodd" d="M303.786 182.008C303.233 182.058 302.671 182.103 302.098 182.14L303.786 182.008ZM320.993 175.928C319.952 176.862 318.763 177.687 317.415 178.413C317.484 178.375 317.553 178.338 317.622 178.3L317.752 178.227C318.962 177.547 320.042 176.78 320.993 175.928ZM321.761 175.191L320.993 175.928C321.256 175.692 321.518 175.44 321.761 175.191ZM135.474 208.457C135.474 208.666 135.475 208.875 135.477 209.084L135.474 208.457ZM135.486 209.661L135.477 209.084C135.479 209.277 135.482 209.469 135.486 209.661ZM194.522 252.859C194.651 252.796 194.78 252.73 194.909 252.663L194.522 252.859ZM194.477 252.88L194.148 253.035C194.258 252.985 194.368 252.933 194.477 252.88Z" fill="#135617"/>
<path fill-rule="evenodd" clip-rule="evenodd" d="M291.601 170.608C296.951 170.608 301.365 170.055 304.844 168.951C301.806 169.915 298.053 170.458 293.587 170.58C292.94 170.598 292.278 170.608 291.601 170.608ZM313.884 161.318C313.897 161.287 313.909 161.256 313.922 161.224C313.916 161.239 313.91 161.255 313.904 161.27C313.898 161.283 313.889 161.305 313.884 161.318ZM314.272 160.269C315.224 157.442 315.7 153.89 315.7 149.613C315.7 150.007 315.694 150.395 315.686 150.777C315.643 152.84 315.481 154.724 315.202 156.428C314.976 157.806 314.672 159.067 314.292 160.21C314.285 160.23 314.279 160.25 314.272 160.269ZM161.426 242.173C163.366 244.207 165.754 245.239 168.592 245.271C168.311 245.267 168.036 245.254 167.764 245.231C166.949 245.163 166.173 245.007 165.437 244.763C164.811 244.556 164.215 244.285 163.646 243.951C162.85 243.483 162.11 242.89 161.426 242.173ZM164.144 186.943C163.803 187.253 163.47 187.578 163.148 187.918C163.06 188.01 162.973 188.104 162.887 188.198C163.324 187.719 163.778 187.269 164.251 186.847C164.215 186.879 164.18 186.911 164.144 186.943ZM177.758 182.14C172.731 182.14 168.533 183.455 165.163 186.085C165.677 185.684 166.21 185.313 166.762 184.974C167.224 184.69 167.699 184.427 168.187 184.186C168.268 184.146 168.35 184.106 168.431 184.068C169.546 183.538 170.73 183.117 171.983 182.806C172.194 182.754 172.407 182.704 172.621 182.658C173.91 182.381 175.269 182.215 176.699 182.161C177.048 182.147 177.401 182.14 177.758 182.14ZM147.575 179.877C151.041 177.147 155.252 175.003 160.207 173.444L160.172 173.455C156.522 174.606 153.277 176.075 150.437 177.862C149.485 178.461 148.578 179.096 147.717 179.766C147.669 179.803 147.622 179.84 147.575 179.877ZM135.474 208.457C135.474 208.666 135.475 208.875 135.477 209.084C135.479 209.277 135.482 209.469 135.486 209.661L135.474 208.457ZM194.909 252.663L194.148 253.035L194.477 252.88L194.522 252.859L194.909 252.663Z" fill="#135617"/>
<path d="M303.786 182.008C303.233 182.058 302.671 182.103 302.098 182.14L303.786 182.008ZM246.212 272.698H251.256V187.186H302.261L302.423 187.174C312.1 186.549 320.155 184.063 325.372 178.714L325.414 178.67C328.623 175.301 329.771 170.65 329.799 165.722C329.824 161.381 328.992 156.324 327.449 150.646L326.745 148.173L325.671 144.569H310.654V149.614C310.654 155.458 309.677 159.003 308.422 160.965C306.794 163.255 302.203 165.562 291.602 165.562H179.532C172.711 165.562 166.317 166.402 160.381 168.129C150.815 170.824 143.191 175.538 138.001 182.535C132.814 189.529 130.429 198.308 130.429 208.457C130.429 215.508 131.562 222.273 133.836 228.66L133.848 228.689L134.343 229.98C139.6 243.185 149.037 252.173 162.436 256.568C168.286 258.512 177.106 259.334 188.402 259.334C191.51 259.334 194.48 258.582 197.248 257.132L197.377 257.063C199.97 255.608 202.19 253.687 203.683 251.173C205.201 248.616 205.772 245.769 205.558 242.832L205.553 242.77L205.548 242.706L205.464 241.984C204.988 238.393 203.597 235.062 200.811 232.633C197.871 230.071 194.089 229.138 190.179 229.138H189.984L189.789 229.152C184.512 229.559 178.839 232.465 172.991 236.774L172.812 236.905L172.646 237.053C171.09 238.426 169.894 239.317 169.028 239.836C168.673 240.049 168.436 240.154 168.308 240.208C167.248 240.142 166.446 239.826 165.754 239.302C164.93 238.677 163.992 237.552 163.113 235.572C161.304 231.495 160.182 224.793 160.182 214.961C160.182 210.832 160.549 207.044 161.258 203.58C162.56 197.386 164.715 193.358 167.301 190.896C169.787 188.53 173.115 187.186 177.758 187.186H221.503V272.698H226.548H246.212ZM291.601 170.608L293.587 170.58C298.784 170.438 303.014 169.726 306.277 168.444C302.608 169.886 297.715 170.608 291.601 170.608ZM315.7 149.613C315.7 154.501 315.078 158.442 313.835 161.436C313.858 161.381 313.881 161.326 313.904 161.27C315.002 158.54 315.596 155.043 315.686 150.777L315.7 149.613ZM321.761 175.191L320.993 175.928C321.256 175.692 321.518 175.44 321.761 175.191ZM320.993 175.928C319.952 176.862 318.763 177.687 317.415 178.413C317.484 178.375 317.553 178.338 317.622 178.3C317.666 178.276 317.709 178.252 317.752 178.227C318.962 177.547 320.042 176.78 320.993 175.928ZM168.592 245.271C165.52 245.237 162.975 244.03 160.955 241.65C162.791 243.812 165.06 245.006 167.764 245.231L168.592 245.271ZM163.148 187.918C163.47 187.578 163.803 187.253 164.144 186.943C167.673 183.741 172.211 182.14 177.758 182.14L176.699 182.161C172.887 182.306 169.575 183.243 166.762 184.974C165.343 185.847 164.052 186.922 162.887 188.198C162.973 188.104 163.06 188.01 163.148 187.918ZM160.207 173.444C154.792 175.148 150.266 177.55 146.629 180.652C147.805 179.649 149.074 178.719 150.437 177.862C153.277 176.075 156.522 174.606 160.172 173.455L160.207 173.444ZM135.477 209.084C135.475 208.875 135.474 208.666 135.474 208.457L135.486 209.661C135.482 209.469 135.479 209.277 135.477 209.084ZM194.909 252.663C194.78 252.73 194.651 252.796 194.522 252.859L194.477 252.88C194.368 252.933 194.258 252.985 194.148 253.035L194.909 252.663Z" fill="#18702B"/>
<path d="M353.105 272.698H335.807H330.762V253.254C330.762 251.807 330.398 251.195 330.134 250.894C329.868 250.592 329.27 250.12 327.922 249.771L327.296 249.631C326.535 249.478 324.757 249.3 321.808 249.138L318.455 248.98L314.255 248.813L312.353 235.491L359.242 217.574L359.476 236.257C370.163 227.181 381.168 222.189 392.431 222.188C396.33 222.188 400.174 223.131 403.048 225.874C405.771 228.47 406.884 231.967 407.064 235.592L407.086 236.318L407.088 236.358V236.4L407.056 237.572C406.911 240.294 406.239 242.902 404.83 245.206C403.192 247.882 400.784 249.775 397.912 250.966L397.797 251.015L397.678 251.057C395.749 251.746 393.744 252.089 391.692 252.089H391.394L391.096 252.055L375.365 250.178C369.455 250.335 364.39 253.238 360.057 260.046C359.001 261.846 358.151 265.217 358.151 270.848V272.698H353.105ZM392.432 227.233C392.815 227.233 393.186 227.244 393.546 227.267L392.432 227.233ZM393.546 227.267C396.362 227.443 398.479 228.308 399.896 229.862C398.485 228.313 396.379 227.449 393.579 227.268L393.546 227.267Z" fill="#18702B"/>
<path fill-rule="evenodd" clip-rule="evenodd" d="M225.826 333.342C226.23 331.691 226.464 329.212 226.528 325.905L226.548 323.925C226.548 328.237 226.307 331.376 225.826 333.342ZM226.548 272.698H221.503V323.924C221.503 326.585 221.407 328.665 221.237 330.214C221.153 330.985 221.054 331.57 220.959 331.997L220.941 332.029C220.932 332.044 220.922 332.064 220.922 332.064L220.885 332.086C220.843 332.111 220.797 332.138 220.744 332.165C220.12 332.476 219.078 332.846 217.493 333.189L203.318 336.271V351.591H270.771V336.305L258.166 333.914C254.052 333.054 252.965 331.767 252.69 331.214C252.41 330.58 252.005 329.094 251.707 326.339C251.413 323.629 251.256 320.081 251.256 315.645V272.698H246.212H226.548Z" fill="#135617"/>
<path fill-rule="evenodd" clip-rule="evenodd" d="M353.105 272.698H358.151V323.481L358.18 324.53C358.314 326.885 358.901 328.587 359.725 329.842C360.534 331.075 361.768 332.176 363.669 333.049L364.526 333.411L364.888 333.549C365.05 333.602 365.282 333.677 365.595 333.773C366.43 334.028 367.687 334.397 369.384 334.882C371.806 335.505 373.599 335.97 374.564 336.237L375.251 336.436L378.7 337.586V351.591H312.578V338.523L314.824 337.025C315.674 336.459 316.69 336.155 317.099 336.032L317.132 336.022C317.764 335.833 318.54 335.633 319.418 335.426C326.052 333.86 328.785 331.733 329.725 330.122C330.329 328.874 330.689 327.462 330.762 325.824V272.698H335.807H353.105ZM317.622 341.223C317.917 341.026 318.903 340.73 320.579 340.336L319.45 340.614C318.455 340.872 317.844 341.076 317.622 341.223ZM372.029 340.779C372.893 341.006 373.421 341.15 373.614 341.21C373.407 341.146 372.818 340.987 371.845 340.731L372.029 340.779ZM371.845 340.731L368.038 339.745C369.652 340.16 370.921 340.489 371.845 340.731ZM355.921 333.204L355.844 333.099C355.877 333.144 355.888 333.159 355.921 333.204Z" fill="#135617"/>
<path d="M494.14 319.993C485.027 326.62 476.334 329.674 467.981 329.674C459.462 329.674 452.476 327.819 446.808 324.351C436.804 318.236 430.967 306.693 430.611 287.917L430.594 286.077C430.594 281.901 430.916 277.444 431.563 272.698H426.468H410.133H405.003C403.898 278.809 403.354 285.345 403.354 292.287C403.354 316.166 411.743 334.707 428.991 346.965L430.614 348.073C438.782 353.439 447.721 356.175 457.337 356.175L457.369 356.173C474.193 356.065 488.779 349.529 500.9 336.877L501.003 336.769L501.102 336.65L508.199 328.287L497.688 317.414L494.14 319.993ZM457.337 351.129C453.925 351.129 450.608 350.747 447.387 349.982C450.067 350.618 452.814 350.989 455.627 351.096L457.337 351.129ZM416.23 325.654C415.873 325.024 415.528 324.385 415.196 323.737L415.18 323.705C415.483 324.297 415.797 324.882 416.121 325.46L416.23 325.654ZM496.197 334.47C494.228 336.439 492.197 338.233 490.104 339.853C492.215 338.22 494.262 336.408 496.246 334.42L496.197 334.47ZM497.256 333.388L496.246 334.42C496.584 334.081 496.921 333.737 497.256 333.388ZM425.55 286.076C425.55 296.143 427.005 304.663 429.915 311.635C427.193 305.112 425.745 297.236 425.569 288.006L425.55 286.076ZM466.154 334.691C466.757 334.709 467.367 334.718 467.982 334.718L466.259 334.694L466.154 334.691Z" fill="#135617"/>
<path fill-rule="evenodd" clip-rule="evenodd" d="M405.003 272.698H410.133H426.468H431.563C431.594 272.465 431.627 272.231 431.66 271.997C431.692 271.769 431.726 271.54 431.759 271.311H502.619L503.277 267.032C504.323 260.236 503.785 253.352 501.745 246.433L501.311 245.034C498.572 236.649 493.711 230.08 486.651 225.686C479.678 221.346 470.967 219.38 460.884 219.38H460.756C447.781 219.71 435.843 224.8 425.042 234.225L424.985 234.274L424.931 234.323C414.393 244.08 407.844 256.983 405.003 272.698ZM498.753 260.111C498.758 262.177 498.604 264.229 498.291 266.265L498.456 265.061C498.657 263.421 498.757 261.771 498.753 260.111ZM439.3 241.279C435.62 244.691 432.849 248.148 430.985 251.651C432.677 248.471 435.118 245.328 438.307 242.223L439.3 241.279ZM460.294 233.591L461.318 233.614C461.982 233.643 462.63 233.701 463.264 233.789C462.308 233.657 461.318 233.591 460.294 233.591ZM442.766 244.945C447.11 240.838 452.8 238.637 460.293 238.637C464.492 238.637 467.653 240.031 470.189 242.778L470.233 242.827L470.657 243.302C472.151 245.098 473.313 247.761 473.849 251.609H436.903C438.36 249.464 440.279 247.249 442.729 244.977L442.766 244.945Z" fill="#18702B"/>
<path d="M605.321 319.993C596.208 326.62 587.515 329.674 579.162 329.674C570.643 329.674 563.659 327.818 557.992 324.351L557.036 323.742C547.615 317.484 542.136 306.088 541.792 287.917L541.775 286.077C541.775 281.901 542.097 277.444 542.743 272.698H537.649H521.315H516.184C515.079 278.809 514.535 285.345 514.535 292.287C514.535 316.166 522.924 334.707 540.171 346.965L541.795 348.073C549.962 353.439 558.902 356.175 568.518 356.175L568.55 356.173C585.374 356.065 599.96 349.529 612.081 336.877L612.186 336.769L612.283 336.65L619.38 328.287L608.868 317.414L605.321 319.993ZM521.641 310.83C520.267 305.15 519.581 298.968 519.581 292.286L519.604 294.386C519.734 300.268 520.413 305.749 521.641 310.83ZM568.518 351.129C564.902 351.129 561.393 350.7 557.991 349.84C560.854 350.563 563.793 350.981 566.808 351.096L568.518 351.129ZM607.378 334.47C606.409 335.439 605.425 336.366 604.426 337.25C605.437 336.355 606.433 335.416 607.414 334.434L607.378 334.47ZM607.414 334.434L608.437 333.388C608.312 333.517 608.188 333.646 608.063 333.775C607.847 333.997 607.631 334.216 607.414 334.434ZM536.731 286.076C536.731 288.874 536.843 291.551 537.068 294.109C536.896 292.145 536.79 290.111 536.75 288.006L536.731 286.076ZM579.163 334.718L577.441 334.694C578.01 334.71 578.584 334.718 579.163 334.718Z" fill="#135617"/>
<path fill-rule="evenodd" clip-rule="evenodd" d="M516.184 272.698H521.315H537.649H542.743C542.806 272.238 542.872 271.776 542.94 271.311H613.8L614.458 267.032C615.503 260.236 614.965 253.352 612.925 246.433L612.494 245.034L611.955 243.484C609.138 235.837 604.451 229.806 597.832 225.686C590.859 221.346 582.149 219.38 572.067 219.38H571.939C558.963 219.71 547.025 224.799 536.223 234.225L536.166 234.274L536.112 234.323C525.574 244.08 519.025 256.983 516.184 272.698ZM609.472 266.265C609.529 265.89 609.582 265.514 609.629 265.137L609.472 266.265ZM609.629 265.137C609.892 263.025 609.985 260.898 609.908 258.754C609.985 260.872 609.895 262.975 609.639 265.061L609.629 265.137ZM571.475 233.591L572.499 233.614C573.133 233.642 573.753 233.696 574.361 233.778C573.431 233.653 572.469 233.591 571.475 233.591ZM550.481 241.279C548.842 242.799 547.383 244.328 546.104 245.866C547.118 244.646 548.247 243.432 549.488 242.223L550.481 241.279ZM553.947 244.945C558.291 240.838 563.983 238.637 571.476 238.637C575.674 238.637 578.834 240.031 581.369 242.778L581.414 242.827L581.837 243.302C583.332 245.098 584.494 247.761 585.03 251.609H548.084C549.541 249.463 551.462 247.25 553.912 244.977L553.947 244.945Z" fill="#18702B"/>
<path d="M724.94 325.108L724.968 326.289C724.949 325.904 724.94 325.51 724.94 325.108ZM725.345 329.362C725.145 328.407 725.02 327.383 724.968 326.289C725.021 327.372 725.147 328.416 725.345 329.362ZM729.986 272.698H724.94H705.129H700.083V315.645C700.083 323.286 699.468 327.978 698.612 330.332L698.59 330.396L698.568 330.462C698.349 331.119 697.384 332.66 692.592 333.618L679.829 336.214V351.591H749.058V336.286L744.929 335.522L740.574 334.694C736.941 333.98 734.872 333.497 734.115 333.246C732.676 332.651 731.772 331.825 731.161 330.763C730.576 329.744 730.115 328.25 730.008 326.08L729.986 325.107V272.698Z" fill="#613D27"/>
<path fill-rule="evenodd" clip-rule="evenodd" d="M794.133 210.083C794.133 210.412 794.125 210.735 794.109 211.052L794.133 210.083ZM705.129 272.698H724.94H729.986V269.239H758.798L759.71 269.262C760.55 269.301 761.179 269.393 761.629 269.503C761.732 269.528 761.82 269.554 761.895 269.577C762.086 270.01 762.335 270.665 762.617 271.599C762.719 271.94 762.824 272.306 762.93 272.698H768.14H775.948H780.993V234.311H765.711L763.351 244.699C762.929 246.481 762.54 247.867 762.19 248.894C762.068 249.255 761.949 249.553 761.85 249.796C761.281 249.896 760.392 249.983 759.094 249.983H729.986V184.819H773.751L774.234 184.841C776.562 184.994 777.896 185.823 778.836 187.06C779.973 188.689 781.179 191.771 782.166 196.815L782.139 196.832L782.112 196.85C781.123 197.443 779.679 198.242 777.742 199.259L777.7 199.281L777.656 199.306C772.324 202.238 769.128 206.918 769.127 213.039V213.268L769.149 213.498L769.268 214.535C769.409 215.571 769.62 216.601 769.898 217.621L769.93 217.737L769.967 217.853L770.334 218.875C771.268 221.224 772.729 223.31 774.862 224.834C777.29 226.569 780.138 227.251 783.043 227.251H783.193L783.341 227.243C785.627 227.109 787.837 226.567 789.946 225.645L790.019 225.613L790.093 225.578C793.005 224.191 795.376 222.108 796.969 219.301C798.34 216.886 799.002 214.169 799.146 211.315L799.178 210.083V165.562H679.977V180.939L692.725 183.53C696.643 184.369 698.01 185.66 698.482 186.479C698.775 187.047 699.227 188.454 699.568 191.162C699.902 193.807 700.083 197.287 700.083 201.656V272.698H705.129ZM787.48 197.812C787.48 198.129 787.428 198.435 787.323 198.732C787.399 198.516 787.447 198.295 787.467 198.069L787.48 197.812ZM786.74 199.734C786.679 199.807 786.588 199.895 786.475 199.991L786.74 199.734Z" fill="#885A3C"/>
<path fill-rule="evenodd" clip-rule="evenodd" d="M768.14 272.698H762.93C763.457 274.646 764.025 277.229 764.629 280.49L765.393 284.616H780.993V272.698H775.948H768.14ZM768.14 272.698C768.436 273.894 768.736 275.24 769.041 276.736L769.056 276.814C768.746 275.287 768.441 273.915 768.14 272.698Z" fill="#613D27"/>
<path d="M880.023 319.993C870.91 326.62 862.216 329.674 853.863 329.674C845.344 329.674 838.358 327.819 832.69 324.351L831.735 323.742C822.314 317.484 816.837 306.088 816.494 287.917L816.476 286.077C816.476 281.901 816.798 277.444 817.445 272.698H812.349H796.014H790.885C789.78 278.809 789.236 285.345 789.236 292.287C789.236 316.166 797.623 334.707 814.87 346.965C823.472 353.062 832.962 356.175 843.219 356.175L843.251 356.173C860.075 356.065 874.659 349.529 886.779 336.877L886.885 336.769L886.984 336.65L894.081 328.287L883.567 317.414L880.023 319.993ZM794.28 292.286C794.28 292.986 794.288 293.681 794.303 294.371L794.28 292.286ZM794.372 296.451C794.341 295.763 794.318 295.07 794.303 294.371C794.318 295.065 794.342 295.768 794.372 296.451ZM843.218 351.129C838.875 351.129 834.687 350.51 830.654 349.271C834.155 350.346 837.773 350.954 841.507 351.096L843.218 351.129ZM811.448 287.968C811.437 287.344 811.431 286.713 811.431 286.076L811.448 287.968ZM853.863 334.718L852.141 334.694C852.71 334.71 853.284 334.718 853.863 334.718Z" fill="#613D27"/>
<path fill-rule="evenodd" clip-rule="evenodd" d="M812.349 272.698H796.014H790.885C793.726 256.983 800.275 244.08 810.813 234.323L810.867 234.274L810.924 234.225C821.726 224.8 833.663 219.71 846.638 219.38H846.766C856.849 219.38 865.56 221.346 872.534 225.686C879.152 229.806 883.837 235.837 886.654 243.484L887.193 245.034L887.624 246.433C889.664 253.352 890.205 260.235 889.159 267.032L888.499 271.311H817.642C817.573 271.776 817.507 272.238 817.445 272.698H812.349ZM884.336 265.079L884.172 266.265C884.232 265.87 884.287 265.475 884.336 265.079ZM828.646 244.945C832.989 240.838 838.682 238.637 846.175 238.637C850.374 238.637 853.535 240.031 856.071 242.778L856.115 242.827L856.539 243.302C858.033 245.098 859.193 247.761 859.729 251.609H822.785C824.242 249.464 826.161 247.249 828.611 244.977L828.646 244.945Z" fill="#885A3C"/>
<path d="M946.729 272.698H941.684H924.09H919.045V322.003C919.045 326.461 918.139 329.353 916.872 331.184C915.688 332.896 913.85 334.175 910.825 334.798C907.415 335.443 904.864 335.955 903.865 336.288L900.417 337.439V351.591H966.244V337.017L962.283 336.148L960.859 335.825C957.675 335.082 955.132 334.332 953.183 333.588C949.523 332.051 948.003 330.12 947.436 328.058L947.421 328.009C947.3 327.585 947.092 326.228 946.943 323.469C946.802 320.862 946.729 317.377 946.729 312.984V272.698ZM905.461 341.075C906.053 340.878 908.172 340.435 911.819 339.745L909.371 340.217C907.209 340.642 905.906 340.928 905.461 341.075Z" fill="#613D27"/>
<path d="M995.352 272.698H1012.95H1017.99V312.984L1018 316.108C1018.03 319.064 1018.1 321.513 1018.21 323.469C1018.32 325.54 1018.46 326.822 1018.58 327.511L1018.68 328.009L1018.7 328.058C1019.26 330.118 1020.78 332.045 1024.43 333.581C1026.38 334.326 1028.93 335.081 1032.12 335.825L1033.54 336.148L1037.51 337.017V351.591H1004.59H971.678V337.439L975.129 336.288C976.129 335.955 978.678 335.443 982.086 334.798C985.113 334.175 986.952 332.896 988.136 331.184C989.403 329.353 990.309 326.461 990.309 322.003V272.698H995.352Z" fill="#613D27"/>
<path d="M1017.99 272.698H1012.95H995.352H990.309V172.827C990.309 169.906 990.211 167.661 990.04 166.035C989.908 164.776 989.754 164.176 989.706 163.987L989.693 163.936C989.568 163.801 989.054 163.341 987.488 162.877C985.738 162.359 983.201 162.002 979.741 161.921L978.201 161.904H973.885L971.779 148.422L1017.99 136.097V272.698Z" fill="#885A3C"/>
<path fill-rule="evenodd" clip-rule="evenodd" d="M941.684 272.698H946.729V136.097L900.515 148.422L902.621 161.904H906.94L908.479 161.921C911.938 162.003 914.475 162.359 916.224 162.877C917.792 163.342 918.308 163.802 918.432 163.936L918.443 163.985C918.491 164.17 918.643 164.771 918.776 166.035C918.948 167.661 919.045 169.906 919.045 172.827V272.698H924.09H941.684Z" fill="#885A3C"/>
<path d="M1133.73 319.993C1124.62 326.62 1115.92 329.674 1107.57 329.674C1099.05 329.674 1092.06 327.819 1086.4 324.351L1085.44 323.742C1076.02 317.484 1070.54 306.088 1070.2 287.917L1070.18 286.077C1070.18 281.901 1070.5 277.444 1071.15 272.698H1066.05H1049.72H1044.59C1043.49 278.809 1042.94 285.345 1042.94 292.287C1042.94 316.166 1051.33 334.707 1068.58 346.965C1077.18 353.062 1086.67 356.175 1096.92 356.175L1096.96 356.173C1113.78 356.065 1128.36 349.529 1140.49 336.877L1140.59 336.769L1140.69 336.65L1147.79 328.287L1137.27 317.414L1133.73 319.993ZM1047.99 292.286C1047.99 292.985 1047.99 293.679 1048.01 294.367L1047.99 292.286ZM1048.08 296.451C1048.05 295.762 1048.02 295.067 1048.01 294.367C1048.02 295.061 1048.05 295.768 1048.08 296.451ZM1096.92 351.129C1095.11 351.129 1093.33 351.021 1091.57 350.805C1092.77 350.953 1093.98 351.049 1095.21 351.096L1096.92 351.129ZM1105.85 334.694C1106.42 334.71 1106.99 334.718 1107.57 334.718L1105.85 334.694Z" fill="#613D27"/>
<path fill-rule="evenodd" clip-rule="evenodd" d="M1066.05 272.698H1049.72H1044.59C1047.43 256.983 1053.98 244.08 1064.52 234.323L1064.57 234.274L1064.63 234.225C1075.43 224.8 1087.37 219.71 1100.34 219.38H1100.47C1110.55 219.38 1119.27 221.346 1126.24 225.686C1132.86 229.806 1137.54 235.837 1140.36 243.484L1140.9 245.034L1141.33 246.433C1143.37 253.352 1143.91 260.235 1142.86 267.032L1142.2 271.311H1071.35C1071.28 271.776 1071.21 272.238 1071.15 272.698H1066.05ZM1138.04 265.079L1137.88 266.265C1137.94 265.87 1137.99 265.475 1138.04 265.079ZM1082.35 244.945C1086.7 240.838 1092.39 238.637 1099.88 238.637C1104.08 238.637 1107.24 240.031 1109.78 242.778L1109.82 242.827L1110.24 243.302C1111.74 245.098 1112.9 247.761 1113.43 251.609H1076.49C1077.95 249.464 1079.87 247.249 1082.32 244.977L1082.35 244.945Z" fill="#885A3C"/>
<path d="M1236.34 227.233C1236.73 227.233 1237.1 227.244 1237.46 227.267L1236.34 227.233ZM1239.53 227.548C1238.9 227.408 1238.19 227.314 1237.46 227.267C1238.2 227.313 1238.89 227.407 1239.53 227.548ZM1197.02 272.698H1202.06V270.848C1202.06 265.189 1202.92 261.815 1203.99 260.021C1208.32 253.232 1213.37 250.335 1219.27 250.178L1235.01 252.055L1235.3 252.089H1235.6C1237.66 252.089 1239.66 251.746 1241.59 251.057L1241.71 251.015L1241.82 250.966C1244.7 249.775 1247.1 247.882 1248.74 245.206C1250.35 242.573 1251 239.543 1251 236.4V236.318L1250.97 235.592C1250.79 231.967 1249.68 228.47 1246.96 225.874C1244.08 223.132 1240.24 222.188 1236.34 222.188C1225.08 222.188 1214.07 227.182 1203.39 236.259L1203.15 217.574L1156.26 235.491L1158.17 248.813L1162.37 248.98C1167.39 249.181 1170.19 249.428 1171.21 249.631L1171.83 249.771C1173.18 250.12 1173.78 250.592 1174.04 250.894C1174.31 251.194 1174.67 251.806 1174.67 253.254V272.698H1179.72H1197.02Z" fill="#885A3C"/>
<path fill-rule="evenodd" clip-rule="evenodd" d="M1179.72 272.698H1174.67V325.858C1174.6 327.489 1174.23 328.893 1173.63 330.137C1172.74 331.643 1170.28 333.597 1164.55 335.121L1163.33 335.426C1162.45 335.633 1161.68 335.833 1161.04 336.022L1161.01 336.033C1160.6 336.156 1159.58 336.46 1158.73 337.025L1156.49 338.523V351.591H1222.61V337.586L1219.16 336.436C1218.65 336.265 1216.54 335.717 1213.32 334.887C1211.61 334.399 1210.34 334.029 1209.5 333.773C1209.19 333.677 1208.96 333.602 1208.8 333.549L1208.44 333.411L1207.58 333.049C1205.68 332.175 1204.45 331.075 1203.64 329.842C1202.7 328.408 1202.06 326.39 1202.06 323.481V272.698H1197.02H1179.72Z" fill="#613D27"/>
</g>
<path d="M231.062 107.149H551.048" stroke="black" stroke-opacity="0.15" stroke-width="34.6039" stroke-linecap="round"/>
<path d="M834.147 426.045H1154.13" stroke="black" stroke-opacity="0.15" stroke-width="34.6039" stroke-linecap="round"/>
<defs>
<filter id="filter0_ii_52_613" x="0" y="0" width="1381.43" height="517.722" filterUnits="userSpaceOnUse" color-interpolation-filters="sRGB">
<feFlood flood-opacity="0" result="BackgroundImageFix"/>
<feBlend mode="normal" in="SourceGraphic" in2="BackgroundImageFix" result="shape"/>
<feColorMatrix in="SourceAlpha" type="matrix" values="0 0 0 0 0 0 0 0 0 0 0 0 0 0 0 0 0 0 127 0" result="hardAlpha"/>
<feOffset dy="62.9162"/>
<feComposite in2="hardAlpha" operator="arithmetic" k2="-1" k3="1"/>
<feColorMatrix type="matrix" values="0 0 0 0 0 0 0 0 0 0 0 0 0 0 0 0 0 0 0.15 0"/>
<feBlend mode="normal" in2="shape" result="effect1_innerShadow_52_613"/>
<feColorMatrix in="SourceAlpha" type="matrix" values="0 0 0 0 0 0 0 0 0 0 0 0 0 0 0 0 0 0 127 0" result="hardAlpha"/>
<feOffset dy="-62.9162"/>
<feComposite in2="hardAlpha" operator="arithmetic" k2="-1" k3="1"/>
<feColorMatrix type="matrix" values="0 0 0 0 0 0 0 0 0 0 0 0 0 0 0 0 0 0 0.15 0"/>
<feBlend mode="normal" in2="effect1_innerShadow_52_613" result="effect2_innerShadow_52_613"/>
</filter>
<filter id="filter1_d_52_613" x="130.429" y="136.097" width="1123.72" height="232.661" filterUnits="userSpaceOnUse" color-interpolation-filters="sRGB">
<feFlood flood-opacity="0" result="BackgroundImageFix"/>
<feColorMatrix in="SourceAlpha" type="matrix" values="0 0 0 0 0 0 0 0 0 0 0 0 0 0 0 0 0 0 127 0" result="hardAlpha"/>
<feOffset dx="3.14581" dy="12.5832"/>
<feComposite in2="hardAlpha" operator="out"/>
<feColorMatrix type="matrix" values="0 0 0 0 0 0 0 0 0 0 0 0 0 0 0 0 0 0 0.25 0"/>
<feBlend mode="normal" in2="BackgroundImageFix" result="effect1_dropShadow_52_613"/>
<feBlend mode="normal" in="SourceGraphic" in2="effect1_dropShadow_52_613" result="shape"/>
</filter>
</defs>
</svg>
